<svg id="android_app_icon" data-name="android app icon" xmlns="http://www.w3.org/2000/svg" width="14.207" height="16" viewBox="0 0 14.207 16">
  <path id="Path_498" data-name="Path 498" d="M33.851,31.971a.205.205,0,1,1,.356-.2l.726,1.267a4.692,4.692,0,0,1,6.441,0l.724-1.265a.205.205,0,1,1,.357.2l-.789,1.378a3.863,3.863,0,0,1,.917,2.486H33.725a3.863,3.863,0,0,1,.914-2.484Zm-.808,5.869v4.425h0a1,1,0,0,1-1.985,0h0V37.84h0c0-.017,0-.034,0-.051a1,1,0,0,1,1.99,0c0,.016,0,.034,0,.051Zm9.586,5.146a.135.135,0,0,1-.01.051.8.8,0,0,1,.01.135.942.942,0,0,1-.829.9v.013h-.387v2.726h0a1,1,0,0,1-1.984,0h0V44.089H36.886v2.726h0a1,1,0,0,1-1.985,0h0V44.089H34.5v-.014a.907.907,0,0,1-.816-1.039.126.126,0,0,1-.01-.051v-6.6a.127.127,0,0,1,.127-.127h8.7a.127.127,0,0,1,.127.127Zm2.631-5.148v4.425h0a1,1,0,0,1-1.984,0h0V37.837h0c0-.017,0-.034,0-.051a1,1,0,0,1,1.991,0c0,.017,0,.034,0,.051Z" transform="translate(-31.054 -31.663)" fill="#c6c6c6"/>
</svg>
