<svg id="configure_icon" data-name="configure icon" xmlns="http://www.w3.org/2000/svg" width="29.466" height="30" viewBox="0 0 29.466 30">
  <path id="Path_495" data-name="Path 495" d="M5.662,28.328h9.109l-.056-.1a3.368,3.368,0,0,1-.181-3.006H5.962V9.434H28.734v6.4c.122.069.244.134.359.209l.216-.078a3.341,3.341,0,0,1,2.528.094V4.812A2.812,2.812,0,0,0,29.025,2H5.662A2.812,2.812,0,0,0,2.85,4.812V25.522A2.812,2.812,0,0,0,5.662,28.328ZM14.016,4.784a1.175,1.175,0,1,1-1.175,1.175h0A1.175,1.175,0,0,1,14.016,4.784Zm-3.484,0A1.175,1.175,0,1,1,9.356,5.959,1.175,1.175,0,0,1,10.531,4.784Zm-3.484,0A1.175,1.175,0,1,1,5.872,5.959,1.175,1.175,0,0,1,7.047,4.784ZM32.153,19.678,31.5,18.544a1.188,1.188,0,0,0-1.437-.522l-1.328.484a6.564,6.564,0,0,0-2.278-1.316L26.209,15.8a1.188,1.188,0,0,0-1.172-.988H23.725a1.187,1.187,0,0,0-1.172.984l-.244,1.391A6.544,6.544,0,0,0,20.031,18.5L18.7,18.019a1.187,1.187,0,0,0-1.431.522l-.656,1.134a1.187,1.187,0,0,0,.266,1.506l1.081.906a6.617,6.617,0,0,0,0,2.634l-1.081.906a1.187,1.187,0,0,0-.266,1.506l.656,1.137a1.188,1.188,0,0,0,1.438.522l1.328-.484a6.564,6.564,0,0,0,2.278,1.316l.244,1.391A1.188,1.188,0,0,0,23.728,32h1.313a1.187,1.187,0,0,0,1.172-.984l.244-1.391a6.564,6.564,0,0,0,2.278-1.316l1.328.484a1.188,1.188,0,0,0,1.438-.522l.656-1.134a1.187,1.187,0,0,0-.266-1.506l-1.081-.906a6.617,6.617,0,0,0,0-2.634l1.081-.906A1.187,1.187,0,0,0,32.153,19.678Zm-7.772,6.209a2.481,2.481,0,1,1,2.481-2.481,2.481,2.481,0,0,1-2.481,2.481Z" transform="translate(-2.85 -2)" fill="#fff"/>
</svg>
