<svg id="desktop_app_icon" data-name="desktop app icon" xmlns="http://www.w3.org/2000/svg" width="16" height="16" viewBox="0 0 16 16">
  <path id="Path_497" data-name="Path 497" d="M10.8,15.6v.8h2.4a.8.8,0,0,1,0,1.6H6.8a.8.8,0,1,1,0-1.6H9.2v-.8H4.4A2.4,2.4,0,0,1,2,13.2V4.4A2.4,2.4,0,0,1,4.4,2H15.6A2.4,2.4,0,0,1,18,4.4v8.8a2.4,2.4,0,0,1-2.4,2.4ZM4.4,3.6a.8.8,0,0,0-.8.8v8.8a.8.8,0,0,0,.8.8H15.6a.8.8,0,0,0,.8-.8V4.4a.8.8,0,0,0-.8-.8Zm4,9.6a.8.8,0,1,1,0-1.6h3.2a.8.8,0,0,1,0,1.6Z" transform="translate(-2 -2)" fill="#0066b3"/>
</svg>
