<svg id="add_file_or_browse" data-name="add file or browse" xmlns="http://www.w3.org/2000/svg" width="12.779" height="16" viewBox="0 0 12.779 16">
  <rect id="Rectangle_73" data-name="Rectangle 73" width="6.05" height="0.944" transform="translate(3.364 12.39)" fill="#c6c6c6"/>
  <path id="Path_599" data-name="Path 599" d="M29.139,9.924l1.911,2.308,1.911,2.308,1.906-2.312,1.906-2.312-1.683,0-1.046-3.65-1.146-4L31.81,6.284l-.985,3.638Z" transform="translate(-26.566 -2.27)" fill="#c6c6c6"/>
  <rect id="Rectangle_74" data-name="Rectangle 74" width="2.887" height="0.702" transform="translate(5.076 15.298)" fill="#c6c6c6"/>
  <rect id="Rectangle_75" data-name="Rectangle 75" width="0.774" height="2.887" transform="translate(12.004 8.28)" fill="#c6c6c6"/>
  <path id="Path_600" data-name="Path 600" d="M56.766,24.208l.076.221.168.487h4.133v2.807h.774V24.208Z" transform="translate(-49.139 -20.194)" fill="#c6c6c6"/>
  <rect id="Rectangle_76" data-name="Rectangle 76" width="0.774" height="2.887" transform="translate(0 8.28)" fill="#c6c6c6"/>
  <path id="Path_601" data-name="Path 601" d="M65.99,70.782H62.7v.7h4.066V67.4H65.99Z" transform="translate(-53.986 -55.484)" fill="#c6c6c6"/>
  <path id="Path_602" data-name="Path 602" d="M15.853,24.916h4.083l.153-.467.079-.241h-5.09v3.516h.774Z" transform="translate(-15.079 -20.194)" fill="#c6c6c6"/>
  <path id="Path_603" data-name="Path 603" d="M15.853,67.4h-.774v4.083H19.4v-.7H15.853Z" transform="translate(-15.079 -55.485)" fill="#c6c6c6"/>
</svg>
