<svg id="Erase" xmlns="http://www.w3.org/2000/svg" xmlns:xlink="http://www.w3.org/1999/xlink"
	 viewBox="0 0 512 512" width="18" height="18">
 <g>
  <g>
   <path id="svg_2" d="m447.577,254.503c11.139,-11.139 17.274,-25.95 17.274,-41.705c0,-15.753 -6.135,-30.563 -17.274,-41.703l-118.527,-118.527c-11.139,-11.139 -25.95,-17.274 -41.703,-17.274c-15.755,0 -30.564,6.135 -41.705,17.274l-114.198,114.197c-2.702,2.704 -4.221,6.369 -4.221,10.191s1.519,7.487 4.221,10.191l171.361,171.361l-89.372,89.371l-71.915,0l-103.889,-103.888c-5.696,-5.694 -8.833,-13.267 -8.833,-21.321c0,-8.055 3.137,-15.628 8.833,-21.322l52.245,-52.245c5.628,-5.628 5.628,-14.753 0,-20.383c-5.629,-5.626 -14.752,-5.626 -20.383,0l-52.245,52.245c-22.995,22.995 -22.995,60.411 0,83.406l108.111,108.113c0.091,0.091 0.19,0.167 0.282,0.255c0.248,0.235 0.494,0.47 0.758,0.687c0.114,0.094 0.236,0.174 0.353,0.264c0.257,0.199 0.513,0.398 0.783,0.579c0.094,0.062 0.193,0.114 0.288,0.174c0.303,0.193 0.608,0.383 0.925,0.553c0.066,0.036 0.137,0.063 0.203,0.098c0.35,0.182 0.706,0.355 1.074,0.507c0.045,0.019 0.091,0.032 0.134,0.049c0.389,0.157 0.785,0.303 1.19,0.427c0.048,0.014 0.098,0.023 0.146,0.037c0.399,0.117 0.804,0.223 1.218,0.306c0.114,0.023 0.231,0.033 0.346,0.053c0.347,0.061 0.696,0.121 1.052,0.157c0.476,0.048 0.956,0.072 1.438,0.072l83.858,0l171.545,0c7.958,0 14.412,-6.454 14.412,-14.412s-6.454,-14.412 -14.412,-14.412l-136.751,0l79.18,-79.18l114.198,-114.195zm-181.552,-181.552c5.694,-5.696 13.267,-8.833 21.322,-8.833c8.053,0 15.627,3.137 21.321,8.833l118.526,118.526c5.696,5.694 8.833,13.267 8.833,21.321c0,8.055 -3.137,15.628 -8.833,21.322l-104.006,104.008l-161.171,-161.171l104.008,-104.006z" fill="#0066b3"/>
  </g>
  <line stroke="#0066b3" stroke-linecap="undefined" stroke-linejoin="undefined" id="svg_4" y2="-204.54688" x2="-295.5" y1="-204.54688" x1="-293.5" stroke-width="1.5" fill="none"/>
  <polyline stroke-linecap="round" id="svg_5" points="714.5,648.453125 714.5,648.453125 714.5,648.453125 " fill-opacity="null" stroke-opacity="null" stroke-width="1.5" stroke="#0066b3" fill="none"/>
  <line stroke-linecap="undefined" stroke-linejoin="undefined" id="svg_8" y2="171" x2="148" y1="252.66667" x1="65.66667" fill-opacity="null" stroke-opacity="null" stroke-width="29" stroke="#0066b3" fill="none"/>
  <line stroke-linecap="undefined" stroke-linejoin="undefined" id="svg_10" y2="462.33326" x2="463.66663" y1="462.33326" x1="394.99997" fill-opacity="null" stroke-opacity="null" stroke-width="28.5" stroke="#0066b3" fill="none"/>
 </g>
</svg>