<svg id="Feedback" xmlns="http://www.w3.org/2000/svg" xmlns:xlink="http://www.w3.org/1999/xlink" width="14" height="13.104" viewBox="0 0 14 13.104">
  <defs>
    <clipPath id="clip-path">
      <path id="Path_486" data-name="Path 486" d="M11.243-3.5,8.617-.9,8-1.517l2.881-2.858h2.805a.438.438,0,0,0,.438-.437v-5.25a.438.438,0,0,0-.437-.437H4.938a.438.438,0,0,0-.437.438V-4.8a.438.438,0,0,0,.439.437L8-4.375,8-3.5l-3.063.009A1.312,1.312,0,0,1,3.625-4.8v-5.262a1.313,1.313,0,0,1,1.313-1.312h8.75A1.313,1.313,0,0,1,15-10.062v5.25A1.313,1.313,0,0,1,13.688-3.5Z" fill="none"/>
    </clipPath>
    <clipPath id="clip-path-2">
      <path id="Path_489" data-name="Path 489" d="M1.875-7H1v-5.687A1.313,1.313,0,0,1,2.312-14H8v.875H2.312a.437.437,0,0,0-.437.438Z" fill="none"/>
    </clipPath>
  </defs>
  <g id="Group_380" data-name="Group 380" transform="translate(-1 14)" clip-path="url(#clip-path)">
    <path id="Path_485" data-name="Path 485" d="M-1.375-16.375H20V4.1H-1.375Z" fill="#fff"/>
  </g>
  <g id="Group_381" data-name="Group 381" transform="translate(2.625 2.625)">
    <path id="Path_487" data-name="Path 487" d="M7.618,7.875l-2.625,2.6-.616-.621L7.257,7h2.805a.438.438,0,0,0,.438-.437V1.313a.438.438,0,0,0-.437-.437H1.313a.437.437,0,0,0-.437.438V6.571a.438.438,0,0,0,.439.437L4.377,7l0,.875-3.063.009A1.312,1.312,0,0,1,0,6.575V1.313A1.313,1.313,0,0,1,1.313,0h8.75a1.313,1.313,0,0,1,1.313,1.313v5.25a1.313,1.313,0,0,1-1.312,1.313Z" fill="#fff"/>
  </g>
  <g id="Group_382" data-name="Group 382" transform="translate(-1 14)" clip-path="url(#clip-path-2)">
    <path id="Path_488" data-name="Path 488" d="M-4-19H13V-2H-4Z" fill="#fff"/>
  </g>
  <g id="Group_383" data-name="Group 383">
    <path id="Path_490" data-name="Path 490" d="M.875,7H0V1.313A1.313,1.313,0,0,1,1.312,0H7V.875H1.312a.437.437,0,0,0-.437.438Z" fill="#fff"/>
  </g>
</svg>
