<svg id="svg" xmlns="http://www.w3.org/2000/svg" xmlns:xlink="http://www.w3.org/1999/xlink" width="16" height="16" viewBox="0, 0, 400,400">
  <g>
  <path d="M169.531 5.379 C 11.566 29.962,-53.634 223.889,57.312 339.156 C 159.221 445.034,338.191 405.982,387.139 267.188 C 436.663 126.760,316.734 -17.529,169.531 5.379 M225.000 28.835 C 364.027 49.948,420.407 221.583,321.946 323.965 C 220.900 429.034,44.165 365.733,29.280 219.141 C 17.833 106.407,114.821 12.103,225.000 28.835 M191.649 81.916 C 169.225 90.101,170.448 120.288,193.454 126.483 C 211.041 131.218,227.388 116.660,224.109 99.182 C 221.509 85.323,205.558 76.838,191.649 81.916 M175.000 240.625 L 175.000 315.625 200.000 315.625 L 225.000 315.625 225.000 240.625 L 225.000 165.625 200.000 165.625 L 175.000 165.625 175.000 240.625 " fill="#777"/>
  </g>
</svg>