<svg id="ios_app_icon" data-name="ios app icon" xmlns="http://www.w3.org/2000/svg" width="14.249" height="16" viewBox="0 0 14.249 16">
  <path id="Path_499" data-name="Path 499" d="M9.4,39.178A3.13,3.13,0,0,0,11.686,40.5a4.182,4.182,0,0,0,1.467-.432,4.046,4.046,0,0,1,1.395-.25,3.445,3.445,0,0,1,1.339.263c.225.095.447.2.676.284a2.031,2.031,0,0,0,.727.136,2.284,2.284,0,0,0,1.285-.414,8.494,8.494,0,0,0,2.481-3.221c.057-.115.112-.231.167-.346.091-.192-.052-.436-.307-.576a3.459,3.459,0,0,1-1.894-2.89,3.319,3.319,0,0,1,1.431-3.112l.2-.166c.112-.092.051-.349-.16-.549A4.264,4.264,0,0,0,17.585,28a3.857,3.857,0,0,0-.632.052,16.455,16.455,0,0,1-2.607.615,2.606,2.606,0,0,1-.8-.125A7.612,7.612,0,0,0,11.252,28a2.1,2.1,0,0,0-.265.011,4.345,4.345,0,0,0-2.6,1.239,5.817,5.817,0,0,0-1.234,5.267A10.612,10.612,0,0,0,9.4,39.178Z" transform="translate(-7.003 -24.5)" fill="#c6c6c6"/>
  <path id="Path_500" data-name="Path 500" d="M63.25,3.5a.3.3,0,0,0,.054,0A3.286,3.286,0,0,0,66.25.22.219.219,0,0,0,66.035,0h-.017A.3.3,0,0,0,65.952,0,3.337,3.337,0,0,0,63,3.265a.237.237,0,0,0,.242.233ZM65.72.584a2.723,2.723,0,0,1-2.195,2.349A2.812,2.812,0,0,1,65.72.584Z" transform="translate(-56 0.003)" fill="#c6c6c6"/>
</svg>
