<svg id="web_app_icon" data-name="web app icon" xmlns="http://www.w3.org/2000/svg" width="16" height="16" viewBox="0 0 16 16">
  <path id="Path_496" data-name="Path 496" d="M10.5,2.5a8,8,0,1,0,8,8A8.007,8.007,0,0,0,10.5,2.5Zm6.013,4.935H14.492a9.455,9.455,0,0,0-1.213-3.1A6.8,6.8,0,0,1,16.513,7.435Zm.741,3.065A6.5,6.5,0,0,1,17,12.319H14.711a16.012,16.012,0,0,0,.1-1.819,16.012,16.012,0,0,0-.1-1.819h2.307A7.179,7.179,0,0,1,17.254,10.5Zm-13.507,0A6.5,6.5,0,0,1,4,8.681H6.306a16.421,16.421,0,0,0,0,3.638H4A6.5,6.5,0,0,1,3.746,10.5Zm3.688,0a13.22,13.22,0,0,1,.135-1.819H9.894v3.638H7.569A13.22,13.22,0,0,1,7.435,10.5Zm3.688-6.6c.926.438,1.667,1.853,2.072,3.554H11.123Zm-1.246,0V7.452H7.805C8.209,5.751,8.951,4.336,9.877,3.9Zm0,9.667v3.554c-.926-.438-1.667-1.853-2.072-3.554ZM11.123,17.1V13.548h2.072C12.791,15.249,12.049,16.664,11.123,17.1Zm0-4.783V8.681h2.324a13.22,13.22,0,0,1,.135,1.819,13.22,13.22,0,0,1-.135,1.819Zm-3.4-7.966a9.842,9.842,0,0,0-1.213,3.1H4.487A6.645,6.645,0,0,1,7.721,4.353ZM4.487,13.565H6.508a9.455,9.455,0,0,0,1.213,3.1A6.8,6.8,0,0,1,4.487,13.565Zm8.792,3.082a9.841,9.841,0,0,0,1.213-3.1h2.021A6.645,6.645,0,0,1,13.279,16.647Z" transform="translate(-2.5 -2.5)" fill="#0066b3"/>
</svg>
