<svg id="Info" xmlns="http://www.w3.org/2000/svg" width="14" height="14" viewBox="0 0 14 14">
  <g id="Group_358" data-name="Group 358" transform="translate(0 0)">
    <g id="Group_359" data-name="Group 359">
      <path id="Subtraction_13" data-name="Subtraction 13" d="M76-575a7.008,7.008,0,0,1-7-7,7.008,7.008,0,0,1,7-7,7.008,7.008,0,0,1,7,7A7.008,7.008,0,0,1,76-575Zm-.875-7.875v5.25h1.75v-5.25Zm.875-3.5a.876.876,0,0,0-.875.875.876.876,0,0,0,.875.875.876.876,0,0,0,.875-.875A.876.876,0,0,0,76-586.374Z" transform="translate(-69 589)" fill="#0066B3"/>
    </g>
  </g>
</svg>
