<svg id="Launch_App" data-name="Launch App" xmlns="http://www.w3.org/2000/svg" width="16" height="16" viewBox="0 0 16 16">
  <path id="Path_471" data-name="Path 471" d="M8,0H8A8.024,8.024,0,0,0,0,8H0a8.024,8.024,0,0,0,8,8H8a8.024,8.024,0,0,0,8-8h0A8.024,8.024,0,0,0,8,0ZM7.367,3.946a.633.633,0,1,1,1.267,0V8.383a.633.633,0,0,1-1.267,0V3.946Zm3.887,7.394A4.6,4.6,0,1,1,4.984,4.612a.633.633,0,1,1,.831.957,3.334,3.334,0,1,0,4.349-.018.633.633,0,0,1,.823-.963,4.6,4.6,0,0,1,.266,6.752Z" fill="#fff"/>
</svg>
