<svg id="message" xmlns="http://www.w3.org/2000/svg" width="16" height="16" viewBox="0 0 16 16">
  <path id="Path_466" data-name="Path 466" d="M24.857,10H11.143A1.143,1.143,0,0,0,10,11.143V21.429a1.143,1.143,0,0,0,1.143,1.143h2.286v2.286a1.143,1.143,0,0,0,.686,1.029l.457.114a1.143,1.143,0,0,0,.8-.343l3.086-3.086h6.4A1.143,1.143,0,0,0,26,21.429V11.143A1.143,1.143,0,0,0,24.857,10ZM23.714,20.286H18a1.143,1.143,0,0,0-.8.343l-1.486,1.486v-.686a1.143,1.143,0,0,0-1.143-1.143H12.286v-8H23.714Z" transform="translate(-10 -10)" fill="#fff"/>
</svg>
