<svg id="phone" xmlns="http://www.w3.org/2000/svg" width="16" height="16" viewBox="0 0 16 16">
  <path id="Path_465" data-name="Path 465" d="M10.711,9.98a.853.853,0,0,0,.132-.992L8.928,5.437a.833.833,0,0,0-1.084-.359,4.761,4.761,0,0,0-1.361.951c-2.6,2.6-1.691,7.728,2.036,11.452s8.854,4.636,11.455,2.036a4.721,4.721,0,0,0,.946-1.351.84.84,0,0,0-.361-1.1l-3.545-1.911a.854.854,0,0,0-.992.132l-1.776,1.683a.861.861,0,0,1-1.044.111A13.528,13.528,0,0,1,8.917,12.8a.86.86,0,0,1,.111-1.044Z" transform="translate(-5 -5)" fill="#fff"/>
</svg>
