<svg id="Refresh" xmlns="http://www.w3.org/2000/svg" width="17.4" height="13.949" viewBox="0 0 17.4 13.949">
  <g id="Group_367" data-name="Group 367">
    <path id="Path_458" data-name="Path 458" d="M14.292,38.649a5.344,5.344,0,0,1-2.992.9,5.423,5.423,0,0,1-5.4-4.717h.9a.8.8,0,0,0,.679-.367.7.7,0,0,0,0-.753L5.757,30.867a.78.78,0,0,0-.679-.367h0a.8.8,0,0,0-.679.367c-.606.973-1.505,2.551-1.652,2.772a1.043,1.043,0,0,0-.147.441.713.713,0,0,0,.753.753h.973A7,7,0,0,0,11.3,41.054a6.876,6.876,0,0,0,3.818-1.12.743.743,0,0,0,.22-1.046A.794.794,0,0,0,14.292,38.649Z" transform="translate(-2.6 -27.104)" fill="#fff"/>
    <path id="Path_459" data-name="Path 459" d="M39.434,18.222h-.973A7,7,0,0,0,31.487,12a6.876,6.876,0,0,0-3.818,1.12.756.756,0,1,0,.826,1.266,5.344,5.344,0,0,1,2.992-.9,5.423,5.423,0,0,1,5.4,4.717h-.9a.8.8,0,0,0-.679.367.7.7,0,0,0,0,.753l1.725,2.845a.78.78,0,0,0,.679.367h0a.8.8,0,0,0,.679-.367c.606-.973,1.505-2.551,1.652-2.772a1.043,1.043,0,0,0,.147-.441A.718.718,0,0,0,39.434,18.222Z" transform="translate(-22.787 -12)" fill="#fff"/>
  </g>
</svg>
