<svg id="Lock_screen" data-name="Lock screen" xmlns="http://www.w3.org/2000/svg" width="11.571" height="16" viewBox="0 0 11.571 16">
  <g id="_06" data-name="06" transform="translate(0.214 -1)">
    <path id="Path_456" data-name="Path 456" d="M17.929,3H7.643A.643.643,0,0,0,7,3.643V18.357A.643.643,0,0,0,7.643,19H17.929a.643.643,0,0,0,.643-.643V3.643A.643.643,0,0,0,17.929,3Zm-.643,14.714h-9V4.286h9Z" transform="translate(-7.214 -2)" fill="#fff"/>
    <g id="noun_Unlock_1256484" transform="translate(-16.429 -4.06)">
      <path id="Path_467" data-name="Path 467" d="M20.355,11.662A1.361,1.361,0,0,0,19,13.03v2.662a1.361,1.361,0,0,0,1.355,1.368h3.29A1.361,1.361,0,0,0,25,15.692V13.03a1.364,1.364,0,0,0-1.113-1.345v-.866A1.75,1.75,0,0,0,22.145,9.06h-.29c-1.686-.022-1.742,1.787-1.742,2.759h.774c0-.54-.236-1.982.968-1.977h.29a.972.972,0,0,1,.968.977v.843Zm3.871,1.368v2.662a.583.583,0,0,1-.581.586h-3.29a.583.583,0,0,1-.581-.586V13.03a.583.583,0,0,1,.581-.586h3.29A.583.583,0,0,1,24.226,13.03Z" transform="translate(0)" fill="#fff" stroke="#fff" stroke-width="0.4"/>
    </g>
  </g>
</svg>
