<svg id="stop" xmlns="http://www.w3.org/2000/svg" width="400" height="400" viewBox="0,0,400,400">
    <g>
        <path id="path1" d="M12.585 12.900 C 12.481 13.175,12.441 97.730,12.498 200.800 L 12.600 388.200 200.400 388.200 L 388.200 388.200 388.200 200.400 L 388.200 12.600 200.488 12.500 C 50.527 12.419,12.737 12.500,12.585 12.900 M362.400 200.000 L 362.400 362.400 200.000 362.400 L 37.600 362.400 37.600 200.000 L 37.600 37.600 200.000 37.600 L 362.400 37.600 362.400 200.000" fill="#fff"/>
        <path id="path2" d="M91.785 92.099 C 91.681 92.375,91.641 141.290,91.698 200.800 L 91.800 309.000 200.400 309.000 L 309.000 309.000 309.000 200.400 L 309.000 91.800 200.488 91.699 C 113.888 91.619,91.937 91.700,91.785 92.099" fill="#d0021b"/>
    </g>
</svg>